<svg width="160" height="99" viewBox="0 0 160 99" fill="none" xmlns="http://www.w3.org/2000/svg">
<g clip-path="url(#clip0_20_25)">
<path d="M149.333 82.5H10.6667C4.77778 82.5 0 79.5437 0 75.9V48.136H7.68444L9.41778 45.54H13.2978L15.0267 48.125H30.1467V46.1587L31.4978 48.1387H39.3467L40.6978 46.1257V48.1332H78.2667V43.8872H78.9778C79.4845 43.8982 79.6311 43.9257 79.6311 44.4482V48.1387H99.0667V47.1515C101.053 47.7757 103.396 48.1415 105.88 48.1415C106.022 48.1415 106.16 48.1415 106.302 48.1387H106.28H114.458L116.209 45.5537H120.089L121.8 48.1387H137.56V45.6802L139.942 48.1387H152.547V31.9027H140.071V33.8195L138.324 31.9027H125.498V33.8195L123.893 31.9027H106.573C106.351 31.8945 106.084 31.8917 105.822 31.8917C103.364 31.8917 101.04 32.2437 98.9778 32.8735L99.0711 32.8487V31.9027H87.1245V32.8487C85.8978 32.2492 84.3333 31.889 82.6311 31.889C82.4222 31.889 82.2178 31.8945 82.0178 31.9055H82.0444H38.3867L35.4578 36.0992L32.4489 31.9055H18.6978V33.8222L17.1822 31.9055H5.44889L0.0133333 39.6055V23.1055C0.0133333 19.4617 4.79111 16.5055 10.68 16.5055H149.347C155.236 16.5055 160.013 19.4617 160.013 23.1055V51.9255H151.689C151.556 51.92 151.396 51.92 151.24 51.92C149.311 51.92 147.52 52.2775 146.027 52.8907L146.062 52.877V51.9255H133.751C133.618 51.92 133.458 51.9172 133.298 51.9172C131.458 51.9172 129.747 52.2747 128.351 52.8852L128.378 52.8742V51.9227H106.396V52.8742C104.698 52.2747 102.662 51.9227 100.498 51.9227C100.44 51.9227 100.382 51.9227 100.324 51.9227H100.333H85.8311V52.8742C84.2933 52.261 82.4178 51.898 80.4044 51.898C80.0844 51.898 79.7644 51.9062 79.4489 51.9255L79.4889 51.9227H63.2622L59.5467 54.4087L56.0711 51.9227H31.8311V68.1697H55.6178L59.4444 65.6452L63.0489 68.1697H77.7111V64.3665H79.7556C79.92 64.372 80.1156 64.372 80.3111 64.372C82.1467 64.372 83.9022 64.1575 85.5156 63.7697L85.4178 63.7917V68.1752H97.5067V63.943H98.0889C98.8267 63.943 98.9022 63.9595 98.9022 64.4215V68.178H135.64C135.773 68.1807 135.933 68.1835 136.089 68.1835C138.196 68.1835 140.16 67.793 141.796 67.1247L141.756 67.1385V68.178H153.409C153.573 68.1807 153.769 68.1835 153.964 68.1835C156.147 68.1835 158.222 67.9057 160.107 67.4025L160.004 67.4272V75.9027C160.004 79.5465 155.227 82.5027 149.338 82.5027L149.333 82.5ZM93.8 65.8927H89.2756V54.2465H99.6578C99.9556 54.23 100.298 54.219 100.649 54.219C102.249 54.219 103.769 54.4307 105.138 54.813L105.067 54.7965C106.458 55.2695 107.387 56.1715 107.387 57.2055C107.387 57.2687 107.382 57.3292 107.378 57.3897V57.3815C107.378 57.4117 107.382 57.4502 107.382 57.486C107.382 58.8225 106.08 59.972 104.213 60.4725L104.178 60.4807C105.071 60.6787 105.818 61.017 106.373 61.4542L106.382 61.4597C106.871 61.9575 107.164 62.5625 107.164 63.206C107.164 63.3407 107.151 63.47 107.129 63.602L107.133 63.5855V65.89H102.618V64.4325C102.662 64.2702 102.689 64.0805 102.689 63.888C102.689 63.2472 102.396 62.6477 101.893 62.139L101.907 62.1527C101.182 61.8117 100.262 61.6055 99.2667 61.6055C99.0356 61.6055 98.8044 61.6165 98.5822 61.6385L98.6089 61.6357H93.8V65.89V65.8927ZM93.8 56.6527V59.268H99.2667C99.3867 59.2762 99.52 59.279 99.6622 59.279C100.324 59.279 100.956 59.1855 101.516 59.0205L101.489 59.0287C102.053 58.8005 102.422 58.4127 102.422 57.97C102.422 57.948 102.422 57.9287 102.418 57.9067V57.9095C102.422 57.8875 102.422 57.8627 102.422 57.838C102.422 57.42 102.049 57.0542 101.498 56.8645L101.489 56.8617C100.969 56.716 100.364 56.6307 99.7244 56.6307C99.5956 56.6307 99.4667 56.6335 99.3378 56.6417H99.3556L93.8 56.6527ZM53.6889 65.89H35.88V54.2465H53.9689L59.5022 58.0635L65.2222 54.2465H79.5911C84.6933 54.2465 87.1733 55.5032 87.1733 58.0827C87.1733 60.709 84.6089 61.985 79.3511 61.985H73.7289V65.8872H64.9867L59.4489 62.04L53.6933 65.89H53.6889ZM69.2489 55.495L62.3422 60.0875L69.2489 64.8285V55.495ZM40.3644 61.1462V63.4617H51.4222L56.5333 60.0462L51.6178 56.6527H40.36V58.7702H50.2356V61.1435L40.3644 61.1462ZM73.7289 56.6555V59.62H79.5378C81.3156 59.62 82.3378 59.059 82.3378 58.08C82.3378 57.145 81.3867 56.6527 79.5867 56.6527L73.7289 56.6555ZM153.898 65.8955H145.213V63.393H153.862C153.964 63.4012 154.08 63.4067 154.2 63.4067C154.756 63.4067 155.271 63.294 155.689 63.1015L155.684 63.1042C156.009 62.9172 156.213 62.6505 156.213 62.3535C156.213 62.3507 156.213 62.348 156.213 62.3452C156.213 62.3342 156.213 62.3205 156.213 62.3095C156.213 62.0152 156 61.754 155.667 61.578C155.293 61.4102 154.827 61.3112 154.324 61.3112C154.24 61.3112 154.156 61.314 154.076 61.3195H154.084L153.253 61.303C149.191 61.237 144.591 61.16 144.591 57.7142C144.591 56.0367 146.289 54.2465 151.04 54.2465H160.004V56.727H151.804C151.702 56.7187 151.587 56.716 151.467 56.716C150.924 56.716 150.418 56.8012 149.973 56.9525L149.991 56.947C149.596 57.1092 149.333 57.387 149.333 57.6977C149.333 57.7252 149.333 57.75 149.338 57.7775V57.7747V57.805C149.338 58.1955 149.747 58.5255 150.316 58.641L150.324 58.6437C150.764 58.729 151.271 58.7812 151.796 58.7812C151.884 58.7812 151.978 58.7785 152.067 58.7757H152.053L154.493 58.8142C154.698 58.8005 154.938 58.7922 155.178 58.7922C156.853 58.7922 158.396 59.1525 159.609 59.7575L159.596 59.752C159.729 59.818 159.844 59.8895 159.947 59.9692L159.951 59.972L160.004 64.405C158.711 65.3345 156.804 65.9202 154.676 65.9202C154.4 65.9202 154.129 65.9092 153.867 65.8927L153.898 65.8955ZM136.347 65.8955H127.582V63.393H136.302C136.4 63.4012 136.516 63.4067 136.631 63.4067C137.196 63.4067 137.72 63.294 138.147 63.1015L138.138 63.1042C138.462 62.9172 138.662 62.6477 138.662 62.3535C138.662 62.3507 138.662 62.348 138.662 62.3452C138.662 62.3397 138.662 62.3315 138.662 62.326C138.662 62.029 138.449 61.7595 138.116 61.578C137.738 61.4102 137.262 61.3112 136.751 61.3112C136.667 61.3112 136.582 61.314 136.502 61.3195H136.511L135.684 61.303C131.636 61.237 127.04 61.16 127.04 57.7142C127.04 56.0367 128.729 54.2465 133.471 54.2465H142.484V56.727H134.236C134.133 56.7187 134.018 56.716 133.902 56.716C133.364 56.716 132.858 56.8012 132.418 56.9525L132.436 56.947C132.022 57.1257 131.756 57.4172 131.756 57.7472C131.756 58.1542 132.16 58.5035 132.729 58.6492L132.738 58.652C133.182 58.7372 133.689 58.7895 134.218 58.7895C134.311 58.7895 134.409 58.7867 134.502 58.784H134.489L136.911 58.8225C137.116 58.8087 137.351 58.8032 137.587 58.8032C139.276 58.8032 140.831 59.1635 142.058 59.7685L142.044 59.7602C142.889 60.3377 143.409 61.105 143.409 61.9492C143.409 62.0455 143.4 62.1445 143.387 62.238V62.2242C143.4 64.6525 141.022 65.89 136.333 65.89L136.347 65.8955ZM124.889 65.8955H109.867V54.2437H124.876V56.65H114.356V58.7675H124.631V61.1407H114.356V63.4562L124.889 63.4672V65.8872V65.8955ZM133.644 45.859H124.484L122.733 43.263H113.391L111.693 45.859H106.431C106.284 45.8645 106.111 45.8672 105.938 45.8672C103.653 45.8672 101.551 45.3805 99.8889 44.5637L99.9111 44.572C98.3956 43.5352 97.4711 42.1575 97.4711 40.6422C97.4711 40.4607 97.4845 40.2792 97.5111 40.1032L97.5067 40.1252C97.4844 39.9712 97.4711 39.7925 97.4711 39.611C97.4711 38.06 98.4044 36.6465 99.9422 35.5685L99.9333 35.574C101.52 34.716 103.609 34.1935 105.898 34.1935C106.204 34.1935 106.502 34.2017 106.8 34.221L106.764 34.2182H111.12V36.7015H106.853C106.693 36.6877 106.507 36.6795 106.316 36.6795C105.182 36.6795 104.156 36.949 103.387 37.3917L103.391 37.389C102.573 38.0352 102.08 38.8602 102.08 39.754C102.08 39.8502 102.084 39.9465 102.098 40.04V40.0262C102.08 40.1307 102.071 40.2545 102.071 40.3782C102.071 41.2747 102.547 42.1025 103.347 42.7707L103.333 42.7597C104.084 43.1392 105.049 43.3702 106.107 43.3702C106.236 43.3702 106.36 43.3675 106.484 43.3592H106.467H108.484L114.844 34.2017H121.6L129.213 45.2017V34.2017H136.062L143.964 42.3087V34.2017H148.587V45.8397H142.169L133.636 37.1002V45.8397L133.644 45.859ZM118.093 36.1845L114.996 40.8265H121.204L118.093 36.1845ZM74.5422 45.8535H70.0444V34.21H80.3911C80.7111 34.188 81.0845 34.177 81.4622 34.177C83.0489 34.177 84.5556 34.3942 85.9067 34.7847L85.84 34.7682C87.2133 35.244 88.1244 36.1377 88.1244 37.1635C88.1244 37.2295 88.12 37.2927 88.1156 37.356V37.3477V37.433C88.1156 38.7722 86.8267 39.9245 84.9778 40.4415L84.9422 40.4497C85.8356 40.6587 86.5867 40.9942 87.16 41.4232L87.1689 41.4287C87.6578 41.9237 87.9511 42.5232 87.9511 43.1667C87.9511 43.307 87.9378 43.4445 87.9111 43.582L87.9156 43.5655V45.8507H83.3778L83.36 44.3822V44.1622C83.3867 44.0385 83.4045 43.8955 83.4045 43.747C83.4045 43.142 83.1245 42.5782 82.6356 42.1025L82.6489 42.1162C81.9245 41.7862 81.0133 41.5855 80.0267 41.5855C79.7956 41.5855 79.5644 41.5965 79.3422 41.6185L79.3689 41.6157H74.5467V45.8507L74.5422 45.8535ZM74.5422 36.6327V39.2177H80C80.1289 39.226 80.28 39.2315 80.4311 39.2315C81.0844 39.2315 81.6978 39.138 82.2444 38.9702L82.2222 38.9757C82.7867 38.7612 83.1556 38.3817 83.1556 37.95C83.1556 37.9252 83.1556 37.8977 83.1511 37.873V37.8757C83.1556 37.8537 83.1556 37.829 83.1556 37.8042C83.1556 37.389 82.7733 37.0287 82.2133 36.85L82.2044 36.8472C81.6711 36.7042 81.0533 36.619 80.4 36.619C80.2844 36.619 80.1689 36.6217 80.0578 36.6272H80.0711L74.5422 36.6327ZM26.9156 45.8535H17.7778L16.0489 43.2575H6.68L4.93778 45.8535H0.0488889L8.10667 34.21H14.7867L22.4356 45.2292V34.21H29.7733L35.6578 42.1052L41.0667 34.21H48.5556V45.848H43.9333L43.9244 36.74L37.4044 45.8507H33.4578L26.92 36.7262V45.8507L26.9156 45.8535ZM11.3422 36.1845L8.28 40.8265H14.4222L11.3422 36.1845ZM95.2889 45.8507H90.7022V34.21H95.2933V45.848L95.2889 45.8507ZM66.9067 45.8507H51.9111V34.21H66.9333V36.63H56.4089V38.7282H66.68V41.118H56.4V43.4445H66.9244V45.848L66.9067 45.8507Z" fill="#3D3D44"/>
</g>
<defs>
<clipPath id="clip0_20_25">
<rect width="160" height="99" fill="white"/>
</clipPath>
</defs>
</svg>
