<svg width="46" height="37" viewBox="0 0 46 37" fill="none" xmlns="http://www.w3.org/2000/svg">
<path d="M3.83334 24.8208C5.67505 25.123 7.36565 25.854 8.69474 26.9231C10.0238 27.9921 10.9327 29.352 11.3083 30.8333M3.83334 18.5771C7.72569 18.9253 11.3549 20.3285 14.1241 22.556C16.8934 24.7834 18.6379 27.7025 19.0708 30.8333M3.83334 12.3333V9.25001C3.83334 8.43225 4.23721 7.648 4.9561 7.06976C5.67499 6.49152 6.65001 6.16667 7.66668 6.16667H38.3333C39.35 6.16667 40.325 6.49152 41.0439 7.06976C41.7628 7.648 42.1667 8.43225 42.1667 9.25001V27.75C42.1667 28.5678 41.7628 29.352 41.0439 29.9302C40.325 30.5085 39.35 30.8333 38.3333 30.8333H26.8333" stroke="#3D3D44" stroke-width="2" stroke-linecap="round" stroke-linejoin="round"/>
<path d="M3.83334 30.8333H3.85251" stroke="black" stroke-width="2" stroke-linecap="round" stroke-linejoin="round"/>
</svg>
