<svg width="190" height="138" viewBox="0 0 190 138" fill="none" xmlns="http://www.w3.org/2000/svg">
<path d="M179.198 50.6946L91.3246 3.35543C82.5102 -1.39271 72.1547 -1.08608 63.624 4.17617C55.0933 9.43842 50 18.6611 50 28.8478V109.152C50 119.339 55.0933 128.562 63.624 133.824C68.13 136.604 73.1434 138 78.1712 138C82.6619 138 87.1652 136.885 91.3237 134.645L179.197 87.3045C185.86 83.7149 190 76.701 190 69.0004C190 61.2999 185.861 54.2851 179.198 50.6946ZM171.663 72.6846L83.7889 120.025C79.9734 122.08 75.6667 121.953 71.9743 119.675C68.2809 117.396 66.1635 113.561 66.1635 109.151V28.8478C66.1635 24.4384 68.2809 20.6028 71.9743 18.3251C73.922 17.1234 76.0412 16.5202 78.1685 16.5202C80.074 16.5202 81.9857 17.004 83.7889 17.9753L171.663 65.3145C173.625 66.3721 173.837 68.244 173.837 68.9995C173.837 69.7551 173.625 71.627 171.663 72.6846Z" fill="url(#paint0_linear_18_4)"/>
<path d="M110.741 52.2863L35.4211 9.06365C27.8658 4.72839 18.9898 5.00836 11.6777 9.81302C4.36568 14.6177 0 23.0384 0 32.3393V105.661C0 114.962 4.36568 123.382 11.6777 128.187C15.54 130.725 19.8372 132 24.1467 132C27.9959 132 31.8559 130.982 35.4203 128.936L110.741 85.7128C116.452 82.4354 120 76.0314 120 69.0004C120 61.9694 116.453 55.5646 110.741 52.2863ZM104.282 72.3642L28.9619 115.588C25.6915 117.464 22 117.349 18.8351 115.268C15.6693 113.188 13.8544 109.686 13.8544 105.66V32.3393C13.8544 28.3133 15.6693 24.8112 18.8351 22.7316C20.5045 21.6344 22.321 21.0837 24.1444 21.0837C25.7777 21.0837 27.4163 21.5254 28.9619 22.4123L104.282 65.635C105.965 66.6006 106.146 68.3097 106.146 68.9996C106.146 69.6894 105.965 71.3985 104.282 72.3642Z" fill="url(#paint1_linear_18_4)"/>
<defs>
<linearGradient id="paint0_linear_18_4" x1="120" y1="0" x2="120" y2="138" gradientUnits="userSpaceOnUse">
<stop offset="0.492597" stop-color="#982CED"/>
<stop offset="0.644823" stop-color="#52C635" stop-opacity="0.62"/>
</linearGradient>
<linearGradient id="paint1_linear_18_4" x1="60" y1="6" x2="-72.5" y2="89" gradientUnits="userSpaceOnUse">
<stop offset="0.25292" stop-color="#56E831"/>
<stop offset="0.952705" stop-color="#AF24DF"/>
</linearGradient>
</defs>
</svg>
