<svg width="100" height="100" viewBox="0 0 100 100" fill="none" xmlns="http://www.w3.org/2000/svg">
<path d="M75.352 18.949C67.752 19.182 67.754 30.116 75.352 30.347C82.952 30.114 82.95 19.18 75.352 18.949Z" fill="#3D3D44"/>
<path d="M50 25.547C36.53 25.547 25.611 36.495 25.611 50C26.896 82.437 73.108 82.428 74.388 50C74.389 36.495 63.469 25.547 50 25.547ZM50 65.873C41.257 65.873 34.169 58.766 34.169 50C35.003 28.945 65.001 28.95 65.832 50C65.831 58.767 58.743 65.873 50 65.873Z" fill="#3D3D44"/>
<path d="M97.208 30.418C96.856 13.751 86.252 3.141 69.581 2.792C65.578 2.406 34.424 2.399 30.418 2.792C13.751 3.144 3.141 13.748 2.792 30.419C2.406 34.416 2.398 65.58 2.792 69.582C3.103 86.195 13.803 96.898 30.418 97.208C34.421 97.598 65.575 97.598 69.581 97.208C74.636 96.977 78.089 96.174 81.11 95C91.697 90.771 96.87 81.364 97.208 69.581C97.594 65.578 97.601 34.424 97.208 30.418ZM69.191 88.659C65.252 89.035 34.75 89.041 30.808 88.659C26.178 88.448 23.663 87.674 21.989 87.024C7.54 80.322 12.02 66.769 11.339 48.166C11.354 43.845 11.33 35.13 11.34 30.809C11.917 17.927 17.984 11.963 30.808 11.341C34.752 10.965 65.246 10.959 69.191 11.341C82.077 11.918 88.035 17.985 88.659 30.808C88.914 33.887 89.099 50.695 88.659 59.201C89.134 75.177 88.406 87.722 69.191 88.659Z" fill="#3D3D44"/>
</svg>
