<svg width="168" height="143" viewBox="0 0 168 143" fill="none" xmlns="http://www.w3.org/2000/svg">
<g clip-path="url(#clip0_21_155)">
<path d="M119.553 72.1094C119.617 77.6327 119.577 83.1502 119.577 88.662C119.577 89.9554 119.415 90.1016 118.006 90.1016C116.377 90.1102 114.742 90.1102 113.11 90.1016C111.835 90.1016 111.692 89.9726 111.692 88.8054C111.692 83.4484 111.71 78.0944 111.673 72.7346C111.673 71.8398 111.542 70.9422 111.368 70.059C111.12 68.7828 110.197 68.0573 108.88 67.8537C106.487 67.4809 104.335 68.1921 102.33 69.3506C102.064 69.5055 101.96 70.0647 101.96 70.4375C101.933 74.9456 101.942 79.4537 101.942 83.9618C101.942 85.6595 101.92 87.3514 101.951 89.0434C101.966 89.8206 101.602 90.1188 100.796 90.1102C98.9892 90.0787 97.1828 90.1016 95.3765 90.0959C94.3311 90.0901 94.0438 89.8148 94.0438 88.814C94.0408 80.2882 94.0408 71.7653 94.0438 63.2395C94.0438 62.3419 94.3311 62.0608 95.2909 62.0551C96.92 62.0408 98.546 62.0436 100.187 62.0522C101.22 62.058 101.398 62.2386 101.422 63.2022C101.428 63.5721 101.465 63.9363 101.489 64.5242C102.024 64.2059 102.336 64.0281 102.648 63.8331C105.83 61.8085 109.363 61.3152 113.07 61.9318C116.466 62.4881 118.315 64.6188 119.003 67.6443C119.348 69.1097 119.535 70.6182 119.553 72.1094ZM151.918 60.128L151.542 61.0829C151.453 61.3324 151.374 61.5475 151.322 61.7482H151.319C151.254 61.5418 151.19 61.3238 151.105 61.0829L150.747 60.128H150.402L150.258 62.101H150.515L150.576 61.2521C150.594 60.9539 150.61 60.6241 150.616 60.3803H150.622C150.686 60.6126 150.765 60.8678 150.863 61.146L151.206 62.0895H151.41L151.78 61.1288C151.887 60.8564 151.97 60.6097 152.043 60.3803H152.049C152.049 60.6212 152.067 60.9596 152.089 61.232L152.138 62.101H152.413L152.281 60.128H151.918V60.128ZM69.5739 70.2454C69.7481 76.4913 69.7145 82.7487 69.7543 89.0033C69.7573 89.8378 69.4333 90.1102 68.5194 90.116C66.9454 90.1217 65.3744 90.1188 63.8033 90.116C62.4707 90.116 62.3057 89.9611 62.2384 88.728C62.2323 88.5932 62.2048 88.4613 62.1681 88.2003C61.2726 88.6677 60.5116 89.1151 59.7108 89.4793C56.9141 90.7497 54.0013 90.8673 51.061 90.0557C48.4141 89.3159 46.7942 87.6067 46.1462 85.0974C45.6786 83.285 45.6389 81.464 46.027 79.6602C46.6322 76.867 48.6403 75.3155 51.4339 74.5298C54.1389 73.7612 56.9233 73.6752 59.7169 73.701C61.7158 73.7239 61.7188 73.7067 61.7127 71.8054C61.7127 71.315 61.7494 70.8103 61.6547 70.3343C61.3551 68.8029 60.2609 67.8479 58.4576 67.8479C55.4378 67.8479 52.415 67.9684 49.3983 68.129C47.919 68.2121 47.7234 68.1433 47.7234 66.741C47.7234 65.7573 47.7417 64.7708 47.7173 63.7929C47.705 63.2452 47.9343 62.8695 48.4905 62.7606C53.1761 61.8228 57.8861 61.1747 62.6388 62.2816C66.924 63.271 69.4578 66.0671 69.5739 70.2454ZM61.8992 82.9265C61.8289 82.2755 61.8839 81.616 61.8839 80.9564C61.8839 80.1104 61.9175 79.2615 61.8594 78.4184C61.8442 78.2062 61.5355 77.8363 61.3735 77.842C59.5518 77.9022 57.721 77.9481 55.9116 78.1575C54.8021 78.2894 53.9891 79.0493 53.766 80.0875C53.5581 81.0596 53.497 82.0863 53.5826 83.0814C53.6804 84.1711 54.5179 84.8078 55.661 84.9913C57.4979 85.2895 59.2278 84.954 60.9395 84.3317C61.6761 84.0679 61.9909 83.6836 61.8992 82.9265ZM147.37 71.7911C147.385 77.4749 147.379 83.1617 147.376 88.8455C147.376 89.9726 147.226 90.1016 146.007 90.1016C144.491 90.1102 142.981 90.1102 141.465 90.1016C140.163 90.1016 140.08 90.0299 140.013 88.8398C140.007 88.6993 139.991 88.5645 139.961 88.4269C139.955 88.3752 139.9 88.3437 139.811 88.2175C139.622 88.2978 139.447 88.3494 139.31 88.4412C137.28 89.8607 134.945 90.4142 132.466 90.5949C127.561 90.9677 123.811 87.9393 123.578 83.328C123.52 82.1924 123.49 81.0338 123.67 79.9183C124.116 77.2283 125.883 75.4417 128.606 74.7219C130.66 74.1828 132.815 73.9534 134.939 73.7182C136.174 73.5777 137.442 73.6781 138.695 73.6953C139.246 73.7125 139.518 73.5347 139.487 72.9955C139.441 72.184 139.521 71.3494 139.374 70.5465C139.047 68.7541 137.965 67.8221 136.033 67.8279C133.041 67.8451 130.049 67.9712 127.053 68.129C125.55 68.2035 125.336 68.0917 125.336 66.6406C125.336 65.7401 125.339 64.8368 125.336 63.9363C125.333 63.2366 125.654 62.8466 126.418 62.6803C129.899 61.9432 133.414 61.5446 136.972 61.754C138.46 61.8429 139.973 62.1497 141.391 62.5942C144.775 63.6524 146.642 65.9868 147.186 69.256C147.324 70.0991 147.367 70.9508 147.37 71.7911ZM139.67 83.1875C139.634 82.4447 139.664 81.7106 139.658 80.9765C139.658 80.1907 139.643 79.3935 139.67 78.602C139.683 78.0628 139.484 77.7904 138.864 77.8162C137.76 77.8391 136.645 77.756 135.547 77.8363C131.87 78.0972 131.204 79.3791 131.158 82.2153C131.134 83.8844 131.962 84.7848 133.377 85.0114C135.343 85.3125 137.179 84.9311 138.968 84.1883C139.453 83.9847 139.692 83.7094 139.67 83.1875ZM40.3482 52.3765C38.658 52.3765 36.9708 52.3765 35.2806 52.3765C34.0122 52.3793 33.8929 52.4969 33.8929 53.7014C33.8929 59.52 33.8929 65.3415 33.8929 71.1602C33.8929 77.0878 33.8929 83.0154 33.8929 88.9488C33.8929 89.9324 34.0733 90.0959 35.1064 90.1016C36.763 90.1102 38.4226 90.1016 40.0853 90.1016C41.6472 90.1016 41.7908 89.9726 41.7908 88.5272C41.7908 78.5532 41.7908 68.5792 41.7908 58.6081C41.7908 56.9677 41.7939 55.3302 41.7908 53.6899C41.7878 52.5743 41.5677 52.3793 40.3482 52.3765ZM148.519 60.343H149.161V62.101H149.436V60.343H150.078V60.128H148.519V60.343V60.343ZM89.6334 61.7196C87.3594 61.8113 85.3055 62.4824 83.4655 63.7299C83.2148 63.9019 82.9642 64.0596 82.5883 64.312C82.5577 63.9191 82.5241 63.6868 82.5241 63.4517C82.4996 62.2759 82.2796 62.058 81.0539 62.058C79.4738 62.0522 77.9089 62.0551 76.3348 62.0551C74.8952 62.058 74.6568 62.2759 74.6568 63.6209C74.6568 67.3891 74.6568 71.163 74.6568 74.9313C74.6568 79.5024 74.6537 84.065 74.6568 88.6219C74.6568 89.832 74.941 90.1016 76.1667 90.1016C77.8233 90.1102 79.489 90.1102 81.1487 90.1016C82.4874 90.1016 82.7014 89.9123 82.7014 88.6161C82.7044 82.5566 82.7105 76.4884 82.6891 70.4146C82.6891 69.8152 82.8756 69.4739 83.4624 69.213C85.4063 68.3555 87.3991 67.7131 89.5845 67.7963C90.3853 67.8279 90.7734 67.5439 90.7551 66.7496C90.7215 65.4075 90.7276 64.074 90.752 62.7347C90.7551 62.0035 90.4067 61.6909 89.6334 61.7196ZM7.14903 52.3793C5.60553 52.3707 4.06202 52.365 2.51546 52.3822C0.895539 52.4051 0 53.2712 0 54.7968C0 60.4262 0 66.0585 0 71.6878C0 77.4032 0 83.1101 0 88.8255C0 89.8263 0.143653 89.9611 1.21341 89.9611C2.78442 89.9726 4.35849 89.9726 5.92951 89.9611C7.57999 89.9496 8.40829 89.1782 8.40829 87.6382C8.40829 76.2963 8.40829 64.9486 8.40829 53.6096C8.41134 52.6145 8.18822 52.3879 7.14903 52.3793ZM24.5097 78.103C21.1353 74.7936 16.9847 72.9726 12.4581 72.551C10.9971 72.5252 10.9849 72.5252 11.0246 73.5605C11.0399 73.9419 11.1194 74.3176 11.1805 74.6961C11.9904 79.729 14.6129 83.7381 18.9775 86.7349C21.8383 88.7079 25.0751 89.7317 28.5992 90.0414C29.6475 90.136 29.8248 90.0672 29.7209 89.1036C29.2716 84.9053 27.6425 81.1801 24.5097 78.103ZM28.6236 52.4711C28.2232 52.5313 27.8076 52.5084 27.4102 52.5657C22.8194 53.2511 18.9225 55.1582 15.8232 58.4245C12.9838 61.4127 11.4067 64.9372 11.0338 68.9176C10.939 69.9557 11.0002 69.9586 12.1647 70.0991C13.7632 69.7292 15.4259 69.5026 16.9541 68.9577C24.5861 66.2391 28.7612 60.9625 29.724 53.3916C29.8462 52.4309 29.6751 52.322 28.6236 52.4711Z" fill="#3D3D44"/>
</g>
<path d="M160.5 72C150.499 72.3475 150.501 88.6555 160.5 89C170.501 88.6525 170.499 72.3445 160.5 72Z" fill="#3D3D44"/>
<defs>
<clipPath id="clip0_21_155">
<rect width="152.407" height="143" fill="white"/>
</clipPath>
</defs>
</svg>
