<svg width="360" height="359" viewBox="0 0 360 359" fill="none" xmlns="http://www.w3.org/2000/svg">
<path d="M347.974 288.713H216C214.578 288.713 213.426 289.863 213.426 291.281V291.395C213.426 296.683 209.123 300.974 203.821 300.974H153.874C148.572 300.974 144.269 296.683 144.269 291.395V291.281C144.269 289.863 143.116 288.713 141.695 288.713H9.72038C4.41836 288.713 0.115261 293.005 0.115261 298.292V313.234C0.115261 318.522 4.41836 322.813 9.72038 322.813H347.974C353.276 322.813 357.58 318.522 357.58 313.234V298.292C357.58 293.005 353.276 288.713 347.974 288.713ZM327.65 305.84C327.65 308.445 325.537 310.59 322.886 310.59H302.331C299.718 310.59 297.567 308.483 297.567 305.84V305.725C297.567 303.119 299.68 300.974 302.331 300.974H322.886C325.499 300.974 327.65 303.081 327.65 305.725V305.84Z" fill="#3D3D44"/>
<path d="M326.382 36.1873H33.6179C15.0993 36.1873 0 51.2447 0 69.7119V241.396C0 259.863 15.0993 274.92 33.6179 274.92H326.382C344.901 274.92 360 259.863 360 241.396V69.7119C360 51.2447 344.901 36.1873 326.382 36.1873ZM331.185 241.396C331.185 244.04 329.033 246.185 326.382 246.185H33.6179C30.9669 246.185 28.8154 244.04 28.8154 241.396V69.7119C28.8154 67.0682 30.9669 64.9227 33.6179 64.9227H326.382C329.033 64.9227 331.185 67.0682 331.185 69.7119V241.396Z" fill="#3D3D44"/>
</svg>
