<svg width="256" height="256" viewBox="0 0 256 256" fill="none" xmlns="http://www.w3.org/2000/svg">
<path d="M46.5393 226.511V213.34C46.5393 208.291 43.4659 204.998 38.1973 204.998C35.563 204.998 32.7092 205.876 30.7335 208.73C29.1968 206.315 27.0015 204.998 23.7087 204.998C21.5134 204.998 19.3182 205.656 17.562 208.071V205.437H12.952V226.511H17.562V214.876C17.562 211.145 19.5377 209.388 22.6111 209.388C25.6844 209.388 27.2211 211.364 27.2211 214.876V226.511H31.8311V214.876C31.8311 211.145 34.0263 209.388 36.8802 209.388C39.9535 209.388 41.4902 211.364 41.4902 214.876V226.511H46.5393ZM114.811 205.437H107.348V199.071H102.738V205.437H98.5666V209.608H102.738V219.267C102.738 224.097 104.713 226.95 109.982 226.95C111.958 226.95 114.153 226.292 115.69 225.414L114.372 221.462C113.055 222.34 111.519 222.56 110.421 222.56C108.226 222.56 107.348 221.243 107.348 219.047V209.608H114.811V205.437ZM153.887 204.998C151.253 204.998 149.496 206.315 148.399 208.071V205.437H143.789V226.511H148.399V214.657C148.399 211.145 149.935 209.169 152.789 209.169C153.667 209.169 154.765 209.388 155.643 209.608L156.96 205.217C156.082 204.998 154.765 204.998 153.887 204.998ZM94.8347 207.193C92.6394 205.656 89.5661 204.998 86.2732 204.998C81.0046 204.998 77.4922 207.632 77.4922 211.803C77.4922 215.316 80.1265 217.291 84.7366 217.95L86.9318 218.169C89.3466 218.608 90.6637 219.267 90.6637 220.365C90.6637 221.901 88.9075 222.999 85.8342 222.999C82.7608 222.999 80.3461 221.901 78.8094 220.804L76.6141 224.316C79.0289 226.072 82.3218 226.95 85.6147 226.95C91.7613 226.95 95.2738 224.097 95.2738 220.145C95.2738 216.413 92.4199 214.437 88.0294 213.779L85.8342 213.559C83.8585 213.34 82.3218 212.901 82.3218 211.584C82.3218 210.047 83.8585 209.169 86.2732 209.169C88.9075 209.169 91.5418 210.266 92.859 210.925L94.8347 207.193ZM217.33 204.998C214.695 204.998 212.939 206.315 211.841 208.071V205.437H207.231V226.511H211.841V214.657C211.841 211.145 213.378 209.169 216.232 209.169C217.11 209.169 218.208 209.388 219.086 209.608L220.403 205.217C219.525 204.998 218.208 204.998 217.33 204.998ZM158.497 215.974C158.497 222.34 162.887 226.95 169.693 226.95C172.766 226.95 174.961 226.292 177.156 224.536L174.961 220.804C173.205 222.121 171.449 222.779 169.473 222.779C165.741 222.779 163.107 220.145 163.107 215.974C163.107 212.023 165.741 209.388 169.473 209.169C171.449 209.169 173.205 209.827 174.961 211.145L177.156 207.413C174.961 205.656 172.766 204.998 169.693 204.998C162.887 204.998 158.497 209.608 158.497 215.974ZM201.085 215.974V205.437H196.475V208.071C194.938 206.096 192.743 204.998 189.889 204.998C183.962 204.998 179.352 209.608 179.352 215.974C179.352 222.34 183.962 226.95 189.889 226.95C192.962 226.95 195.158 225.853 196.475 223.877V226.511H201.085V215.974ZM184.181 215.974C184.181 212.242 186.596 209.169 190.547 209.169C194.279 209.169 196.914 212.023 196.914 215.974C196.914 219.706 194.279 222.779 190.547 222.779C186.596 222.56 184.181 219.706 184.181 215.974ZM129.081 204.998C122.934 204.998 118.543 209.388 118.543 215.974C118.543 222.56 122.934 226.95 129.3 226.95C132.373 226.95 135.447 226.072 137.862 224.097L135.666 220.804C133.91 222.121 131.715 222.999 129.52 222.999C126.666 222.999 123.812 221.682 123.153 217.95H138.74V216.194C138.959 209.388 135.008 204.998 129.081 204.998ZM129.081 208.949C131.934 208.949 133.91 210.706 134.349 213.998H123.373C123.812 211.145 125.788 208.949 129.081 208.949ZM243.453 215.974V197.095H238.843V208.071C237.306 206.096 235.111 204.998 232.257 204.998C226.33 204.998 221.72 209.608 221.72 215.974C221.72 222.34 226.33 226.95 232.257 226.95C235.331 226.95 237.526 225.853 238.843 223.877V226.511H243.453V215.974ZM226.55 215.974C226.55 212.242 228.964 209.169 232.916 209.169C236.648 209.169 239.282 212.023 239.282 215.974C239.282 219.706 236.648 222.779 232.916 222.779C228.964 222.56 226.55 219.706 226.55 215.974ZM72.4432 215.974V205.437H67.8332V208.071C66.2965 206.096 64.1012 204.998 61.2474 204.998C55.3202 204.998 50.7102 209.608 50.7102 215.974C50.7102 222.34 55.3202 226.95 61.2474 226.95C64.3208 226.95 66.516 225.853 67.8332 223.877V226.511H72.4432V215.974ZM55.3202 215.974C55.3202 212.242 57.735 209.169 61.6865 209.169C65.4184 209.169 68.0527 212.023 68.0527 215.974C68.0527 219.706 65.4184 222.779 61.6865 222.779C57.735 222.56 55.3202 219.706 55.3202 215.974Z" fill="#3D3D44"/>
<path d="M162.448 45.4034H93.298V169.654H162.448V45.4034Z" fill="#3D3D44" fill-opacity="0.59"/>
<path d="M97.6885 107.529C97.6885 82.2836 109.543 59.892 127.763 45.4034C114.372 34.8662 97.469 28.5 79.0289 28.5C35.3435 28.5 0 63.8435 0 107.529C0 151.214 35.3435 186.558 79.0289 186.558C97.469 186.558 114.372 180.192 127.763 169.654C109.543 155.385 97.6885 132.774 97.6885 107.529Z" fill="#3D3D44"/>
<path d="M255.746 107.529C255.746 151.214 220.403 186.558 176.717 186.558C158.277 186.558 141.374 180.192 127.983 169.654C146.423 155.166 158.058 132.774 158.058 107.529C158.058 82.2836 146.203 59.892 127.983 45.4034C141.374 34.8662 158.277 28.5 176.717 28.5C220.403 28.5 255.746 64.063 255.746 107.529Z" fill="#E8E8EF"/>
</svg>
