<svg width="340" height="326" viewBox="0 0 340 326" fill="none" xmlns="http://www.w3.org/2000/svg">
<path d="M222.825 0H117.175C96.5851 0 79.8866 16.0116 79.8866 35.7528V290.247C79.8866 309.989 96.5851 326 117.175 326H222.824C243.414 326 260.112 309.989 260.112 290.247V35.7528C260.113 16.0116 243.42 0 222.825 0ZM205.797 18.6214C207.195 18.6214 208.32 19.7062 208.32 21.041C208.32 22.3814 207.189 23.4601 205.797 23.4601C204.399 23.4601 203.273 22.3752 203.273 21.041C203.273 19.7062 204.405 18.6214 205.797 18.6214ZM205.797 26.63C207.195 26.63 208.32 27.7149 208.32 29.049C208.32 30.3838 207.189 31.4687 205.797 31.4687C204.399 31.4687 203.273 30.3838 203.273 29.049C203.273 27.7149 204.405 26.63 205.797 26.63ZM143.65 23.3822H196.755C198.631 23.3822 200.148 24.836 200.148 26.6294C200.148 28.429 198.631 29.8828 196.755 29.8828H143.65C141.773 29.8828 140.257 28.429 140.257 26.6294C140.257 24.836 141.773 23.3822 143.65 23.3822ZM184.499 291.487C184.499 298.066 178.93 303.405 172.069 303.405H167.408C160.547 303.405 154.979 298.066 154.979 291.487V286.523C154.979 279.944 160.547 274.606 167.408 274.606H172.069C178.93 274.606 184.499 279.944 184.499 286.523V291.487ZM241.984 259.208H94.3859V70.0156H241.984V259.208Z" fill="#3D3D44"/>
<path d="M148.578 27.6314C149.155 27.6314 149.622 27.183 149.622 26.63C149.622 26.0769 149.155 25.6286 148.578 25.6286C148.001 25.6286 147.534 26.0769 147.534 26.63C147.534 27.183 148.001 27.6314 148.578 27.6314Z" fill="#3D3D44"/>
<path d="M151.629 27.6314C152.206 27.6314 152.674 27.183 152.674 26.63C152.674 26.0769 152.206 25.6286 151.629 25.6286C151.052 25.6286 150.585 26.0769 150.585 26.63C150.585 27.183 151.052 27.6314 151.629 27.6314Z" fill="#3D3D44"/>
<path d="M154.68 27.6314C155.257 27.6314 155.725 27.183 155.725 26.63C155.725 26.0769 155.257 25.6286 154.68 25.6286C154.104 25.6286 153.636 26.0769 153.636 26.63C153.636 27.183 154.104 27.6314 154.68 27.6314Z" fill="#3D3D44"/>
<path d="M157.726 27.6314C158.303 27.6314 158.77 27.183 158.77 26.63C158.77 26.0769 158.303 25.6286 157.726 25.6286C157.149 25.6286 156.682 26.0769 156.682 26.63C156.682 27.183 157.149 27.6314 157.726 27.6314Z" fill="#3D3D44"/>
<path d="M160.777 27.6314C161.354 27.6314 161.822 27.183 161.822 26.63C161.822 26.0769 161.354 25.6286 160.777 25.6286C160.2 25.6286 159.733 26.0769 159.733 26.63C159.733 27.183 160.2 27.6314 160.777 27.6314Z" fill="#3D3D44"/>
<path d="M163.823 27.6314C164.399 27.6314 164.867 27.183 164.867 26.63C164.867 26.0769 164.399 25.6286 163.823 25.6286C163.246 25.6286 162.778 26.0769 162.778 26.63C162.778 27.183 163.246 27.6314 163.823 27.6314Z" fill="#3D3D44"/>
<path d="M166.867 27.6314C167.444 27.6314 167.912 27.183 167.912 26.63C167.912 26.0769 167.444 25.6286 166.867 25.6286C166.291 25.6286 165.823 26.0769 165.823 26.63C165.823 27.183 166.291 27.6314 166.867 27.6314Z" fill="#3D3D44"/>
<path d="M169.919 27.6314C170.496 27.6314 170.964 27.183 170.964 26.63C170.964 26.0769 170.496 25.6286 169.919 25.6286C169.343 25.6286 168.875 26.0769 168.875 26.63C168.875 27.183 169.343 27.6314 169.919 27.6314Z" fill="#3D3D44"/>
<path d="M172.964 27.6314C173.541 27.6314 174.009 27.183 174.009 26.63C174.009 26.0769 173.541 25.6286 172.964 25.6286C172.387 25.6286 171.92 26.0769 171.92 26.63C171.92 27.183 172.387 27.6314 172.964 27.6314Z" fill="#3D3D44"/>
<path d="M176.021 27.6314C176.598 27.6314 177.066 27.183 177.066 26.63C177.066 26.0769 176.598 25.6286 176.021 25.6286C175.445 25.6286 174.977 26.0769 174.977 26.63C174.977 27.183 175.445 27.6314 176.021 27.6314Z" fill="#3D3D44"/>
<path d="M179.067 27.6314C179.644 27.6314 180.112 27.183 180.112 26.63C180.112 26.0769 179.644 25.6286 179.067 25.6286C178.491 25.6286 178.023 26.0769 178.023 26.63C178.023 27.183 178.491 27.6314 179.067 27.6314Z" fill="#3D3D44"/>
<path d="M182.118 27.6314C182.695 27.6314 183.162 27.183 183.162 26.63C183.162 26.0769 182.695 25.6286 182.118 25.6286C181.541 25.6286 181.074 26.0769 181.074 26.63C181.074 27.183 181.541 27.6314 182.118 27.6314Z" fill="#3D3D44"/>
<path d="M185.164 27.6314C185.741 27.6314 186.209 27.183 186.209 26.63C186.209 26.0769 185.741 25.6286 185.164 25.6286C184.587 25.6286 184.12 26.0769 184.12 26.63C184.12 27.183 184.587 27.6314 185.164 27.6314Z" fill="#3D3D44"/>
<path d="M188.215 27.6314C188.792 27.6314 189.259 27.183 189.259 26.63C189.259 26.0769 188.792 25.6286 188.215 25.6286C187.638 25.6286 187.17 26.0769 187.17 26.63C187.17 27.183 187.638 27.6314 188.215 27.6314Z" fill="#3D3D44"/>
</svg>
