<svg width="302" height="302" viewBox="0 0 302 302" fill="none" xmlns="http://www.w3.org/2000/svg">
<path d="M236.133 22.6913C222.199 6.80904 197.01 0 164.788 0H71.2677C64.6751 0 59.073 4.79463 58.0408 11.2957L19.1011 258.261C18.327 263.13 22.0977 267.542 27.0339 267.542H84.7692L99.2697 175.57L98.8202 178.45C99.8523 171.949 105.413 167.155 111.997 167.155H139.433C193.331 167.155 235.534 145.262 247.862 81.9333C248.228 80.0604 248.544 78.2374 248.819 76.4561C247.262 75.632 247.262 75.632 248.819 76.4561C252.49 53.0489 248.794 37.1168 236.133 22.6913Z" fill="black"/>
<path d="M121.362 68.0238C122.902 67.2913 124.616 66.8835 126.414 66.8835H199.732C208.414 66.8835 216.513 67.4495 223.913 68.6398C226.036 68.9811 228.092 69.3723 230.09 69.8218C232.088 70.263 234.027 70.7624 235.908 71.3118C236.849 71.5865 237.773 71.8695 238.68 72.1692C242.318 73.3845 245.706 74.7996 248.819 76.4561C252.49 53.0406 248.794 37.1168 236.133 22.6913C222.19 6.80904 197.01 0 164.788 0H71.2594C64.6751 0 59.073 4.79463 58.0408 11.2957L19.1011 258.253C18.327 263.13 22.0977 267.534 27.0256 267.534H84.7692L114.852 76.7641C115.468 72.8518 117.982 69.647 121.362 68.0238Z" fill="#3D3D44"/>
<path d="M247.862 81.9333C235.534 145.254 193.331 167.155 139.433 167.155H111.989C105.404 167.155 99.844 171.949 98.8202 178.45L80.782 292.805C80.1078 297.067 83.4041 300.93 87.7159 300.93H136.386C142.147 300.93 147.049 296.734 147.948 291.049L148.423 288.569L157.596 230.434L158.187 227.221C159.086 221.535 163.989 217.34 169.749 217.34H177.033C224.18 217.34 261.097 198.186 271.885 142.79C276.388 119.641 274.057 100.313 262.146 86.7362C258.533 82.6242 254.046 79.228 248.819 76.4561C248.536 78.2457 248.228 80.0604 247.862 81.9333Z" fill="#E8E8EF"/>
<path d="M235.917 71.3118C234.035 70.7624 232.096 70.263 230.098 69.8218C228.1 69.3807 226.036 68.9894 223.922 68.6481C216.513 67.4495 208.422 66.8835 199.732 66.8835H126.423C124.616 66.8835 122.902 67.2913 121.37 68.0322C117.982 69.6553 115.477 72.8518 114.861 76.7724L99.278 175.57L98.8285 178.45C99.8523 171.949 105.413 167.155 111.997 167.155H139.441C193.339 167.155 235.542 145.262 247.87 81.9333C248.236 80.0604 248.544 78.2457 248.827 76.4561C245.706 74.8079 242.326 73.3845 238.689 72.1775C237.781 71.8779 236.857 71.5865 235.917 71.3118Z" fill="#3D3D44" fill-opacity="0.59"/>
</svg>
