<svg width="512" height="512" viewBox="0 0 512 512" fill="none" xmlns="http://www.w3.org/2000/svg">
<path d="M31.5 15.3L125.9 15.3C135.7 15.3 144.1 22.3 146 31.9L162.6 120.1L480.5 120.1C489.2 119.7 504.7 128.8 500.2 146L450.4 325.6C447.9 334.4 439.9 340.6 430.7 340.6H179.3C169.5 340.6 161.1 333.6 159.2 324L107.7 56.5L31.3 56.3C20 56.3 10.9 47.2 10.9 35.9C11 24.5 20.2 15.3 31.5 15.3V15.3Z" fill="white"/>
<path d="M227 374.6C260 374.6 286.9 402 286.9 435.6C286.9 469.2 260 496.6 227 496.6C194 496.6 167.1 469.2 167.1 435.6C167.1 402 194 374.6 227 374.6Z" fill="white"/>
<path d="M385.4 374.6C418.4 374.6 445.3 402 445.3 435.6C445.3 469.2 418.4 496.6 385.4 496.6C352.4 496.6 325.5 469.2 325.5 435.6C325.5 402 352.4 374.6 385.4 374.6Z" fill="white"/>
</svg>
