<svg width="56" height="56" viewBox="0 0 56 56" fill="none" xmlns="http://www.w3.org/2000/svg">
<g clip-path="url(#clip0_7_39)">
<path d="M55.818 21.578C55.7 21.216 55.387 20.952 55.01 20.897L36.92 18.268L28.83 1.87599C28.662 1.53399 28.314 1.31799 27.934 1.31799C27.554 1.31799 27.205 1.53399 27.038 1.87599L18.947 18.269L0.857026 20.898C0.480026 20.953 0.168026 21.216 0.0490256 21.579C-0.0679744 21.94 0.0290256 22.338 0.302026 22.603L13.393 35.363L10.302 53.381C10.238 53.756 10.392 54.135 10.699 54.359C11.008 54.585 11.417 54.614 11.752 54.435L27.934 45.929L44.114 54.435C44.26 54.512 44.421 54.55 44.58 54.55C44.787 54.55 44.993 54.486 45.168 54.359C45.476 54.135 45.63 53.756 45.565 53.381L42.475 35.364L55.566 22.603C55.838 22.336 55.936 21.939 55.818 21.578Z" fill="white"/>
</g>
<defs>
<clipPath id="clip0_7_39">
<rect width="55.867" height="55.867" fill="white"/>
</clipPath>
</defs>
</svg>
