<svg width="361" height="369" viewBox="0 0 361 369" fill="none" xmlns="http://www.w3.org/2000/svg">
<g clip-path="url(#clip0_20_125)">
<path d="M292.808 0H68.1947C50.4724 0 36.1007 14.6851 36.1007 32.7988V336.202C36.1007 354.316 50.4712 369.001 68.1947 369.001H292.807C310.527 369.001 324.899 354.318 324.899 336.202V32.7975C324.899 14.6838 310.527 0 292.808 0ZM180.5 350.987C172.909 350.987 166.726 344.687 166.726 336.902C166.726 329.131 172.909 322.819 180.5 322.819C188.103 322.819 194.285 329.131 194.285 336.902C194.286 344.687 188.103 350.987 180.5 350.987ZM296.826 301.487C296.826 305.44 293.687 308.64 289.823 308.64H71.1784C67.3128 308.64 64.176 305.438 64.176 301.487V35.1395C64.176 31.1876 67.3128 27.987 71.1784 27.987H289.823C293.687 27.987 296.826 31.1876 296.826 35.1395V301.487Z" fill="#3D3D44"/>
</g>
<defs>
<clipPath id="clip0_20_125">
<rect width="361" height="369" fill="white"/>
</clipPath>
</defs>
</svg>
