<svg width="432" height="432" viewBox="0 0 432 432" fill="none" xmlns="http://www.w3.org/2000/svg">
<g clip-path="url(#clip0_12_70)">
<path d="M2.61398 273.979L273.978 2.61399C277.464 -0.871006 283.115 -0.871006 286.601 2.61399L306.631 22.643C309.226 25.239 309.968 29.159 308.5 32.523C303.415 44.181 301.629 56.986 303.337 69.554C305.377 84.578 312.139 98.201 322.888 108.951C333.638 119.7 347.261 126.462 362.285 128.502C374.852 130.209 387.657 128.423 399.315 123.338C402.679 121.871 406.599 122.613 409.195 125.208L429.225 145.237C432.71 148.723 432.71 154.374 429.225 157.86L157.861 429.224C154.375 432.709 148.723 432.709 145.238 429.224L125.209 409.196C122.614 406.599 121.872 402.679 123.339 399.316C128.424 387.658 130.21 374.852 128.502 362.285C126.462 347.261 119.701 333.638 108.951 322.889C98.201 312.139 84.578 305.378 69.554 303.337C56.988 301.63 44.182 303.416 32.525 308.501C29.16 309.969 25.24 309.228 22.644 306.631L2.616 286.603C-0.872003 283.116 -0.872017 277.464 2.61398 273.979ZM107.188 250.888L180.951 324.651C183.969 327.669 188.862 327.669 191.879 324.651L324.649 191.878C327.667 188.861 327.667 183.967 324.649 180.95L250.888 107.188C247.869 104.17 242.976 104.17 239.959 107.188L107.187 239.959C104.17 242.978 104.17 247.871 107.188 250.888Z" fill="url(#paint0_linear_12_70)" fill-opacity="0.86296"/>
</g>
<defs>
<linearGradient id="paint0_linear_12_70" x1="151.839" y1="19.838" x2="52" y2="259" gradientUnits="userSpaceOnUse">
<stop offset="0.104375" stop-color="#3C2AAB"/>
<stop offset="0.116733" stop-color="#2AAB3F" stop-opacity="0.74"/>
<stop offset="0.389525" stop-color="#AB2A9E" stop-opacity="0.78"/>
<stop offset="0.853767" stop-color="#2D2AAB" stop-opacity="0.85"/>
</linearGradient>
<clipPath id="clip0_12_70">
<rect width="432" height="432" fill="white" transform="matrix(-1 0 0 1 432 0)"/>
</clipPath>
</defs>
</svg>
