<svg width="214" height="180" viewBox="0 0 214 180" fill="none" xmlns="http://www.w3.org/2000/svg">
<path fill-rule="evenodd" clip-rule="evenodd" d="M44.5833 135C29.8097 135 17.8333 124.926 17.8333 112.5V52.5C17.8333 40.0736 29.8097 30 44.5833 30H169.417C184.19 30 196.167 40.0736 196.167 52.5V112.5C196.167 124.926 184.19 135 169.417 135H133.75C138.675 135 142.667 138.358 142.667 142.5C142.667 146.642 138.675 150 133.75 150H80.25C75.3255 150 71.3333 146.642 71.3333 142.5C71.3333 138.358 75.3255 135 80.25 135H44.5833ZM169.417 45H44.5833C39.6588 45 35.6667 48.3579 35.6667 52.5V112.5C35.6667 116.642 39.6588 120 44.5833 120H169.417C174.341 120 178.333 116.642 178.333 112.5V52.5C178.333 48.3579 174.341 45 169.417 45Z" fill="#3D3D44"/>
</svg>
