<svg width="346" height="333" viewBox="0 0 346 333" fill="none" xmlns="http://www.w3.org/2000/svg">
<g clip-path="url(#clip0_20_6)">
<path d="M343.917 61.0584C342.027 59.2957 339.321 58.7144 336.856 59.5391L325.188 63.414C332.061 55.4097 337.132 47.05 339.802 39.1252C340.577 36.8151 339.873 34.2563 338.012 32.6121C336.14 30.9568 333.422 30.4882 331.063 31.4372C314.7 38.0407 300.22 43.7909 288.705 47.231C288.277 47.3612 287.837 47.3046 287.396 47.067C278.217 42.1187 255.239 30.7538 238.917 30.9347C197.64 31.6631 164.051 65.6115 164.051 106.615V108.857C103.27 97.5317 69.6811 80.7043 33.3104 43.9829L27.6293 38.2438L23.8493 45.2874C4.10597 82.0432 18.1039 114.986 41.1754 137.174C30.9514 135.666 23.5267 132.497 17.2761 127.249C14.8758 125.25 11.4712 125.001 8.79494 126.639C6.15997 128.255 4.95679 131.277 5.80761 134.157C13.5725 160.599 34.3668 182.312 56.3176 195.287C45.7122 195.276 36.9849 194.14 28.2102 188.712C25.6571 187.13 22.335 187.294 19.9523 189.107C17.5872 190.914 16.6775 193.965 17.6866 196.704C28.3861 225.625 48.3938 240.837 81.5486 244.627C64.5045 254.219 42.3901 261.799 7.86161 262.494C4.49283 262.561 1.51091 264.668 0.431496 267.73C-0.647919 270.78 0.338163 274.056 2.93796 276.067C23.9203 292.346 70.9844 302.068 128.837 302.068C232.398 302.068 316.649 213.379 316.649 104.366V102.451C330.048 96.2885 340.272 84.1274 345.677 67.7745C346.464 65.3909 345.789 62.8152 343.917 61.0584Z" fill="#3D3D44"/>
</g>
<defs>
<clipPath id="clip0_20_6">
<rect width="346" height="333" fill="white"/>
</clipPath>
</defs>
</svg>
