<svg width="9" height="9" viewBox="0 0 9 9" fill="none" xmlns="http://www.w3.org/2000/svg">
<g clip-path="url(#clip0_9_66)">
<path d="M2.76831 4.25192C1.30294 4.83598 0.26355 6.26607 0.263552 7.93749C0.263419 7.9724 0.270198 8.007 0.283499 8.03929C0.296801 8.07158 0.316361 8.10091 0.341052 8.1256C0.365744 8.15029 0.395078 8.16985 0.427364 8.18315C0.45965 8.19646 0.49425 8.20324 0.529169 8.2031H7.9375C8.00767 8.20282 8.07486 8.17468 8.12428 8.12487C8.1737 8.07506 8.20132 8.00766 8.20105 7.93749C8.20105 6.26624 7.16194 4.83609 5.69681 4.25192C5.29165 4.56963 4.78335 4.76145 4.2323 4.76145C3.68114 4.76145 3.17311 4.56975 2.76831 4.25192Z" fill="white"/>
<path d="M4.2323 0.265625C3.06644 0.265625 2.11719 1.21488 2.11719 2.38074C2.11719 3.54661 3.06644 4.49792 4.2323 4.49792C5.39817 4.49792 6.34949 3.54661 6.34949 2.38074C6.34949 1.21488 5.39817 0.265625 4.2323 0.265625Z" fill="white"/>
</g>
<defs>
<clipPath id="clip0_9_66">
<rect width="8.46667" height="8.46667" fill="white"/>
</clipPath>
</defs>
</svg>
