<svg width="239" height="115" viewBox="0 0 239 115" fill="none" xmlns="http://www.w3.org/2000/svg">
<g clip-path="url(#clip0_20_146)">
<path d="M221.294 75.555L219.053 70.1644H194.018L190.035 75.5167L169.969 75.5358C179.522 64.4821 189.095 53.4325 198.689 42.3871C200.322 40.5135 203.22 39.56 207.492 39.5696C210.758 39.584 216.086 39.5839 223.485 39.5744L239 75.5406L221.294 75.555ZM199.655 62.7804H215.787L209.762 49.2679L199.655 62.7804ZM70.3058 39.5648L90.4814 39.5744L59.2919 75.5598L38.8674 75.5502C33.7314 66.0451 28.6592 56.532 23.651 47.011C22.6552 45.1135 20.6835 43.7862 16.8893 43.1585C13.5135 42.5979 7.887 41.7354 0 40.5615V39.5792H32.2351C37.8118 39.5792 41.0682 40.8777 42.1138 43.5419C43.1694 46.2108 45.8183 53.0054 50.0805 63.9256L70.3058 39.5648ZM118.205 39.5744L102.252 75.5502L83.0525 75.5406L98.9858 39.5648L118.205 39.5744ZM157.142 38.9083C162.888 38.9083 170.128 39.7708 174.291 40.5615L170.925 48.0221C167.161 47.2937 160.966 46.3115 155.758 46.345C148.19 46.4073 143.51 47.9358 143.51 49.4021C143.51 51.7883 151.636 52.991 160.001 55.5977C169.551 58.5685 170.805 61.2375 170.686 64.1365C170.556 70.1548 160.001 76.0917 137.734 76.0917C127.576 76.0198 123.912 75.6077 115.626 74.1942L119.132 66.4077C127.566 68.1087 131.141 68.6502 138.351 68.6502C144.953 68.6502 150.62 67.366 150.67 65.1283C150.709 63.5375 148.678 62.7469 141.269 60.7823C133.86 58.8129 123.463 56.0864 123.603 50.6144C123.772 43.6089 137.564 38.9083 157.152 38.9083H157.142Z" fill="#3D3D44"/>
</g>
<defs>
<clipPath id="clip0_20_146">
<rect width="239" height="115" fill="white"/>
</clipPath>
</defs>
</svg>
